; NON-PLATED HOLES START AT T1
; THROUGH (PLATED) HOLES START AT T100
M48
INCH
T1C0.125984
T2C0.070000
T3C0.058000
T100C0.040000
T101C0.098425
T102C0.039370
T103C0.051056
T104C0.035000
T105C0.030000
T106C0.086614
%
T1
X059102Y002027
X002102Y040027
X059102Y040027
X002102Y002027
T2
X025674Y036968
X023528Y036968
T3
X023642Y035770
X025549Y035770
T100
X056102Y025927
X055102Y025927
X034102Y029127
X016102Y012027
X028102Y012027
X013102Y023027
X055102Y034927
X019102Y012027
X016102Y032027
X032102Y024127
X015102Y032027
X047102Y036127
X035102Y024027
X057102Y005927
X020102Y012027
X059102Y025927
X058102Y029927
X034102Y024127
X056102Y034827
X035102Y039027
X032102Y029127
X013102Y019027
X056102Y020027
X033102Y029027
X021102Y012027
X045102Y019027
X024102Y012027
X057102Y034927
X017102Y012027
X059102Y005927
X057102Y025927
X056102Y005927
X055102Y005927
X054102Y029927
X056102Y010927
X017102Y032027
X027102Y012027
X013102Y024127
X013102Y020127
X058102Y005927
X012102Y015027
X058102Y010927
X012102Y032027
X057102Y020127
X014102Y032027
X055102Y011027
X014102Y015027
X057102Y029927
X011102Y015127
X054102Y025927
X035102Y029027
X043102Y019027
X056102Y029927
X035102Y040127
X055102Y029927
X054102Y005927
X057102Y011027
X055102Y020127
X058102Y034827
X042102Y019127
X058102Y020027
X059102Y029927
X058102Y025927
X026102Y012027
X044102Y019127
X025102Y012027
X018102Y012027
X047102Y035027
X029102Y012027
X033102Y024027
X013102Y015127
X013102Y032027
T101
X002452Y021727
X009752Y035027
X002452Y035027
X009752Y021727
T102
X002102Y029027
X002102Y030027
X010102Y028027
X005443Y017877
X006821Y017877
X002102Y031027
X002102Y025027
X010102Y023027
X002102Y032027
X010102Y024027
X002102Y026027
X006102Y011027
X005102Y011027
X002102Y027027
X010102Y033027
X010102Y032027
X002102Y023027
X002102Y024027
X004102Y011027
X010102Y026027
X010102Y027027
X002102Y033027
X002102Y028027
X010102Y029027
X010102Y030027
X007102Y011027
X008102Y011027
X010102Y025027
X010102Y031027
T103
X028098Y018027
X021102Y019027
X028098Y028027
X021102Y028021
X021102Y029027
X026891Y025197
X028098Y021027
X028098Y035027
X028098Y030027
X028098Y020027
X028098Y025027
X028098Y031027
X021102Y034027
X028098Y036027
X021102Y033027
X028098Y037027
X028098Y032027
X028098Y022027
X028098Y027027
X021102Y023027
X028098Y026027
X021102Y024027
X028098Y024027
X021102Y026027
X028098Y023027
X021102Y027027
X021102Y022027
X021102Y032027
X021102Y037027
X028098Y033027
X021102Y036027
X028098Y034027
X021102Y031027
X021102Y025027
X021102Y020027
X021102Y030027
X025891Y025197
X021102Y035027
X021102Y021027
X024891Y025197
X028098Y029027
X028098Y019027
X021102Y018027
T104
X049102Y035027
X053102Y035027
T105
X049102Y022027
X038102Y022027
X043102Y006027
X051102Y025027
X042102Y025027
X047102Y006027
X044102Y009027
X048102Y006027
X045102Y025027
X046102Y025027
X039102Y006027
X041102Y009027
X051102Y022027
X042102Y022027
X049102Y025027
X038102Y025027
X045102Y022027
X046102Y022027
X040102Y006027
X041102Y022027
X038102Y009027
X050102Y006027
X049102Y009027
X044102Y022027
X046102Y009027
X041102Y025027
X045102Y009027
X044102Y025027
X051102Y009027
X042102Y009027
X040102Y009027
X050102Y025027
X048102Y009027
X039102Y009027
X041102Y006027
X050102Y022027
X043102Y009027
X047102Y009027
X044102Y006027
X047102Y025027
X051102Y006027
X042102Y006027
X043102Y025027
X039102Y025027
X046102Y006027
X048102Y025027
X045102Y006027
X040102Y022027
X043102Y022027
X050102Y009027
X038102Y006027
X049102Y006027
X047102Y022027
X040102Y025027
X039102Y022027
X048102Y022027
T106
X008202Y018327
X004002Y018327
T00
M30
